<svg xmlns="http://www.w3.org/2000/svg" viewBox="0 0 31.95 45.44"><defs><style>.cls-1{isolation:isolate;}.cls-2{mix-blend-mode:multiply;}.cls-3{fill:#3c3c3b;}</style></defs><g class="cls-1"><g id="Layer_2" data-name="Layer 2"><g id="Capa_1" data-name="Capa 1"><g class="cls-2"><path class="cls-3" d="M16,0A16,16,0,0,0,2.38,24.37L15.06,44.81a1.36,1.36,0,0,0,1.14.63h0a1.35,1.35,0,0,0,1.13-.65L29.69,24.16A16,16,0,0,0,16,0ZM27.41,22.79,16.18,41.55,4.65,23a13.31,13.31,0,1,1,22.76-.18Z"/><path class="cls-3" d="M16,8a8,8,0,1,0,8,8A8,8,0,0,0,16,8Zm0,13.33A5.35,5.35,0,1,1,21.31,16,5.35,5.35,0,0,1,16,21.32Z"/></g></g></g></g></svg>