<svg xmlns="http://www.w3.org/2000/svg" viewBox="0 0 245.85 245.85"><defs><style>.cls-1{fill:#fff;}</style></defs><title>Asset 8</title><g id="Layer_2" data-name="Layer 2"><g id="Layer_1-2" data-name="Layer 1"><path class="cls-1" d="M245.85,122.93A122.85,122.85,0,0,0,62.62,15.86h-15V0H23.79V50.31A121.82,121.82,0,0,0,0,122.93,123,123,0,0,0,166.75,237.8,51.41,51.41,0,0,0,228,233.34l-5.19-6a43.62,43.62,0,1,1,15.13-33,43.14,43.14,0,0,1-9.62,27.33l6.19,5a51.76,51.76,0,0,0,11.36-32.3,51.15,51.15,0,0,0-8.06-27.56A122.5,122.5,0,0,0,245.85,122.93Zm-8-4H203.87L233,89.8A114.15,114.15,0,0,1,237.82,119Zm-20-60.87-44.29,44.29,5.61,5.61,43-43a115.13,115.13,0,0,1,8,16.5L192.66,119H168.19l5.12-5.13-5.6-5.6L157,119H132.5l74.44-74.44A115.83,115.83,0,0,1,217.84,58.09ZM180.11,35.66,187.76,28a115.83,115.83,0,0,1,13.57,10.9l-74.44,74.44V88.88l48.19-48.19-5.61-5.61L126.89,77.67V53.19l37.5-37.5a114.61,114.61,0,0,1,16.5,8l-6.39,6.39ZM126.89,42V8a114.16,114.16,0,0,1,29.16,4.79ZM95.17,71.38h7.93V95.17H95.17Zm-7.93-7.93V95.17H79.31V55.51h7.93ZM71.38,47.58V95.17H63.45V39.65h7.93ZM55.51,23.79V95.17H47.58V23.79ZM31.72,7.93h7.93V95.17H31.72Zm7.93,95.17H111V63.45H95.17V47.58H79.31V31.72H63.45V24.55A114.49,114.49,0,0,1,119,8.07V119H8.09a113.71,113.71,0,0,1,15.7-54.19V103.1ZM8,126.89H119V237.82A115.1,115.1,0,0,1,8,126.89ZM194.3,142.75a51.48,51.48,0,0,0-35,89.3,114.42,114.42,0,0,1-32.42,5.78V126.89H237.83A114.36,114.36,0,0,1,232,159.3,51.38,51.38,0,0,0,194.3,142.75Z"/><rect class="cls-1" x="41.69" y="166.54" width="67.3" height="7.93" transform="translate(-98.5 103.21) rotate(-45)"/><path class="cls-1" d="M91.2,174.48a11.9,11.9,0,1,0,11.9,11.89A11.9,11.9,0,0,0,91.2,174.48Zm0,15.86a4,4,0,1,1,4-4A4,4,0,0,1,91.2,190.34Z"/><path class="cls-1" d="M59.48,166.54a11.9,11.9,0,1,0-11.9-11.89A11.91,11.91,0,0,0,59.48,166.54Zm0-15.86a4,4,0,1,1-4,4A4,4,0,0,1,59.48,150.68Z"/><path class="cls-1" d="M194.3,174.48a7.93,7.93,0,0,1,7.93,7.93h7.93a15.83,15.83,0,0,0-11.89-15.3v-8.5h-7.93v8.5a15.83,15.83,0,0,0,4,31.16,7.93,7.93,0,1,1-7.93,7.93h-7.93a15.86,15.86,0,0,0,11.9,15.3V230h7.93V221.5a15.83,15.83,0,0,0-4-31.16,7.93,7.93,0,0,1,0-15.86Z"/><rect class="cls-1" x="222.06" y="190.34" width="7.93" height="7.93"/><rect class="cls-1" x="158.61" y="190.34" width="7.93" height="7.93"/></g></g></svg>