<svg xmlns="http://www.w3.org/2000/svg" viewBox="0 0 143.26 141.65"><defs><style>.cls-1{fill:#04d7d7;}</style></defs><title>Asset 8</title><g id="Layer_2" data-name="Layer 2"><g id="Layer_1-2" data-name="Layer 1"><path class="cls-1" d="M78.66,29.38V28.3a12.37,12.37,0,0,0,1-.8,6.41,6.41,0,0,0,1.46.17c4.91,0,7.09-4.76,7.61-7.57a2.31,2.31,0,0,0-2.27-2.73H85a2.32,2.32,0,0,0-2.28-2.7H61.93a2.31,2.31,0,0,0-2.27,2.73c.07.39,1.38,7.1,6,10.71v1.27A2.3,2.3,0,0,0,68,31.69h8.35A2.3,2.3,0,0,0,78.66,29.38Zm1-10.08c-.13.33-.26.67-.43,1h0a17.22,17.22,0,0,1-.93,1.71h0a12.28,12.28,0,0,1-.94,1.27h0a6.34,6.34,0,0,1-5,2.42c-4.06,0-6.25-3.74-7.3-6.45H79.61Z"/><path class="cls-1" d="M141,52.07H75.83V46.25a23.19,23.19,0,1,0-4.62,0v5.82H2.31A2.31,2.31,0,0,0,0,54.38v85a2.31,2.31,0,0,0,2.31,2.31H141a2.3,2.3,0,0,0,2.31-2.31v-85A2.3,2.3,0,0,0,141,52.07ZM55,23.19A18.56,18.56,0,1,1,73.52,41.75,18.58,18.58,0,0,1,55,23.19ZM13.74,93.75a9.36,9.36,0,0,1,2.53-6.25c2.5-2.65,6.65-4,12.35-4S38.46,84.84,41,87.46a9.36,9.36,0,0,1,2.67,6.42v33.61H13.74ZM48.3,127.49V94a14.1,14.1,0,0,0-3.9-9.66c-3.45-3.6-8.76-5.43-15.78-5.43s-12.31,1.83-15.71,5.44a13.93,13.93,0,0,0-3.79,9.55v33.61H4.62V68.82h52.7L53.1,95.53a2.29,2.29,0,0,0,2.28,2.67c4.28,0,6.42-2.7,8.13-4.87s2.56-3.12,4.51-3.12,2.88,1.07,4.5,3.12,3.86,4.87,8.14,4.87,6.41-2.7,8.12-4.87,2.56-3.12,4.51-3.12,2.88,1.07,4.5,3.12,3.86,4.87,8.13,4.87,6.42-2.7,8.13-4.87,2.56-3.12,4.51-3.12,2.88,1.07,4.5,3.12,3.86,4.87,8.13,4.87a2.32,2.32,0,0,0,1.76-.8,2.35,2.35,0,0,0,.53-1.87l-4.22-26.71h9.38v58.67Zm80-35.16a18.92,18.92,0,0,1-1.6-1.87c-1.72-2.17-3.86-4.87-8.13-4.87s-6.41,2.7-8.13,4.87-2.56,3.12-4.51,3.12-2.88-1.07-4.5-3.12-3.85-4.87-8.13-4.87-6.41,2.7-8.13,4.87-2.56,3.12-4.5,3.12-2.89-1.07-4.51-3.12S72.3,85.59,68,85.59s-6.42,2.7-8.13,4.87a20.1,20.1,0,0,1-1.61,1.87L62,68.81h62.58Zm10.35-35.64v7.5H4.62v-7.5Zm0,80.34H4.62v-4.92h134Z"/><path class="cls-1" d="M125.38,100H61.2a2.31,2.31,0,0,0-2.32,2.31v16a2.32,2.32,0,0,0,2.32,2.31h64.18a2.32,2.32,0,0,0,2.31-2.31v-16A2.31,2.31,0,0,0,125.38,100Zm-2.31,16H63.51V104.59h59.56Z"/></g></g></svg>