<svg xmlns="http://www.w3.org/2000/svg" viewBox="0 0 105.32 105.32"><defs><style>.cls-1{fill:#04d7d7;}</style></defs><title>Asset 7</title><g id="Layer_2" data-name="Layer 2"><g id="Layer_1-2" data-name="Layer 1"><path class="cls-1" d="M93,0H12.34A12.36,12.36,0,0,0,0,12.34V93a12.36,12.36,0,0,0,12.34,12.34H93A12.36,12.36,0,0,0,105.32,93V12.34A12.36,12.36,0,0,0,93,0Zm4.11,93A4.12,4.12,0,0,1,93,97.09H12.34A4.12,4.12,0,0,1,8.23,93V12.34a4.11,4.11,0,0,1,4.11-4.11H93a4.12,4.12,0,0,1,4.11,4.11Z"/><path class="cls-1" d="M58.83,20.57H30V84.75h8.23v-23H58.83a20.57,20.57,0,1,0,0-41.14Zm0,32.91H38.26V28.8H58.83a12.34,12.34,0,1,1,0,24.68Z"/></g></g></svg>