<svg xmlns="http://www.w3.org/2000/svg" viewBox="0 0 109.99 131.98"><defs><style>.cls-1{fill:#fff;}</style></defs><title>Asset 2</title><g id="Layer_2" data-name="Layer 2"><g id="Layer_1-2" data-name="Layer 1"><path class="cls-1" d="M99,0H11A11,11,0,0,0,0,11V116.58a6.59,6.59,0,0,0,6.6,6.6v6.6A2.19,2.19,0,0,0,8.8,132h92.39a2.2,2.2,0,0,0,2.2-2.2v-6.6a6.6,6.6,0,0,0,6.6-6.6V11A11,11,0,0,0,99,0ZM11,4.4H99a6.6,6.6,0,0,1,6.6,6.6V26.4H4.4V11A6.59,6.59,0,0,1,11,4.4ZM99,127.58H11v-4.4H99Zm4.4-8.8H6.6a2.19,2.19,0,0,1-2.2-2.2V30.8H105.59v85.78A2.2,2.2,0,0,1,103.39,118.78Z"/><path class="cls-1" d="M41.8,22H68.19a2.2,2.2,0,0,0,2.2-2.2V11a2.19,2.19,0,0,0-2.2-2.2H41.8A2.2,2.2,0,0,0,39.59,11v8.8A2.21,2.21,0,0,0,41.8,22ZM44,13.2H66v4.4H44Z"/><path class="cls-1" d="M55,22a6.6,6.6,0,1,0-6.6-6.6A6.6,6.6,0,0,0,55,22Zm0-8.8a2.2,2.2,0,1,1-2.2,2.2A2.19,2.19,0,0,1,55,13.2Z"/><path class="cls-1" d="M55,22a6.6,6.6,0,1,0-6.6-6.6A6.6,6.6,0,0,0,55,22Zm0-8.8a2.2,2.2,0,1,1-2.2,2.2A2.19,2.19,0,0,1,55,13.2Z"/><path class="cls-1" d="M52.79,17.6h4.4a2.2,2.2,0,1,0,0-4.4h-4.4a2.2,2.2,0,1,0,0,4.4Z"/><path class="cls-1" d="M52.79,17.6h4.4a2.2,2.2,0,1,0,0-4.4h-4.4a2.2,2.2,0,1,0,0,4.4Z"/><path class="cls-1" d="M55,39.6a35.2,35.2,0,1,0,35.2,35.19A35.19,35.19,0,0,0,55,39.6Zm0,66a30.8,30.8,0,1,1,30.8-30.8A30.8,30.8,0,0,1,55,105.59Z"/><path class="cls-1" d="M55,46.19A28.57,28.57,0,0,0,28.54,85.63c0,.05,0,.09,0,.14a1.48,1.48,0,0,1,.08.13,28.58,28.58,0,0,0,53.94-3.71l0-.11A28.5,28.5,0,0,0,55,46.19Zm0,4.4a24.14,24.14,0,0,1,24.2,24.09A24.71,24.71,0,0,1,78.6,80a33.62,33.62,0,0,0-3.37,1.32A20,20,0,0,1,66,83.59a14.89,14.89,0,0,1-7.82-2,19.19,19.19,0,0,0-9.78-2.42A57.67,57.67,0,0,0,32,82.27,24.18,24.18,0,0,1,55,50.59ZM55,99A24.23,24.23,0,0,1,33.73,86.34a52.35,52.35,0,0,1,14.66-2.75,14.89,14.89,0,0,1,7.82,2A19.19,19.19,0,0,0,66,88a23.71,23.71,0,0,0,10.65-2.46A24.2,24.2,0,0,1,55,99Z"/></g></g></svg>