<svg xmlns="http://www.w3.org/2000/svg" viewBox="0 0 208.52 208.52"><defs><style>.cls-1{fill:#3cf;}.cls-2{fill:#fff;}.cls-2,.cls-3{fill-rule:evenodd;}.cls-3{fill:#191938;}</style></defs><g id="Layer_2" data-name="Layer 2"><g id="Capa_1" data-name="Capa 1"><circle class="cls-1" cx="104.26" cy="104.26" r="104.26"/><path class="cls-2" d="M111.65,39A58.45,58.45,0,0,0,65.47,61.52,57.78,57.78,0,0,0,53.32,97V107.7a18.18,18.18,0,0,1-4.86,12.36,19,19,0,0,1-8.71,5.06c1.22,3,4,7.7,9.11,12.76a51.41,51.41,0,0,0,14.79,10.74v-.21A18.18,18.18,0,0,1,79,140.11a20.28,20.28,0,0,1,3.45.4,18.19,18.19,0,0,1,14.38,14.18h15a59.11,59.11,0,0,0,41.11-17,57.43,57.43,0,0,0,12.56-63A58.14,58.14,0,0,0,111.65,39Z"/><path class="cls-3" d="M111.65,31.75A65.26,65.26,0,0,0,46,97.17V107.7c0,5.47-3.85,10.53-11.34,10.94a3.52,3.52,0,0,0-3.45,3.24c-.2,4.86,5.07,14,12.36,21.27A68.89,68.89,0,0,0,60.81,155.5a18.16,18.16,0,0,0,18,21.27H79a18.24,18.24,0,0,0,17.83-14.38h15.19a17.9,17.9,0,0,0,17.82,14.38,22.44,22.44,0,0,0,6.28-1,16.84,16.84,0,0,0,10.74-10.54,19.52,19.52,0,0,0,0-13.16A67.52,67.52,0,0,0,158,143.15a64.56,64.56,0,0,0,0-92A64,64,0,0,0,111.65,31.75Zm0,7.29a58.55,58.55,0,0,1,53.88,35.85,57.29,57.29,0,0,1-12.56,63,58.22,58.22,0,0,1-41.11,17h-15a17.91,17.91,0,0,0-14.38-14.18,19.33,19.33,0,0,0-3.45-.41,18.42,18.42,0,0,0-15.39,8.31v.2a64.24,64.24,0,0,1-14.79-10.74,43.35,43.35,0,0,1-9.11-12.76,18.08,18.08,0,0,0,8.71-5.06,18.56,18.56,0,0,0,4.86-12.36V97.17A58.31,58.31,0,0,1,111.65,39Z"/><path class="cls-3" d="M140.82,75.09a7.29,7.29,0,1,0,7.29,7.29A7.26,7.26,0,0,0,140.82,75.09Z"/><path class="cls-3" d="M97.07,75.09a7.29,7.29,0,1,0,7.29,7.29A7.26,7.26,0,0,0,97.07,75.09Z"/><path class="cls-3" d="M95.86,104.06a3.5,3.5,0,0,0-3.25,5.06,29.18,29.18,0,0,0,52.67,0,3.57,3.57,0,0,0-3.24-5.06h0a3.6,3.6,0,0,0-3.24,2,22,22,0,0,1-19.65,12.36A21.55,21.55,0,0,1,99.5,106.08h0A4.25,4.25,0,0,0,95.86,104.06Z"/></g></g></svg>