<svg xmlns="http://www.w3.org/2000/svg" viewBox="0 0 76.53 75.26"><defs><style>.cls-1{fill:#fff;}</style></defs><title>Asset 1</title><g id="Layer_2" data-name="Layer 2"><g id="fondos"><path class="cls-1" d="M25.11,51.75c3.15,4.45,6.3,8.42,8.38,11l.87,1.05h-6.3a1.28,1.28,0,0,0,0,2.55H48.47a1.28,1.28,0,1,0,0-2.55H42.18L43,62.73c2.09-2.55,5.23-6.53,8.39-11a112.91,112.91,0,0,0,8.42-13.58c2.61-5.11,3.93-9.36,3.93-12.62A25.49,25.49,0,0,0,56.31,7.49a1.28,1.28,0,0,0-1.24-.35,1.28,1.28,0,0,0-.57,2.15,23,23,0,0,1,6.73,16.26c0,2.86-1.23,6.71-3.65,11.46a109.13,109.13,0,0,1-8.24,13.27c-3.11,4.39-6.21,8.32-8.27,10.84l-1.83,2.21a1.3,1.3,0,0,1-1,.44,1.27,1.27,0,0,1-1-.44c-.53-.63-1.15-1.37-1.83-2.21-2.06-2.52-5.17-6.45-8.28-10.84A107.83,107.83,0,0,1,19,37c-2.43-4.75-3.65-8.6-3.65-11.46A23,23,0,0,1,47.21,4.36a1.28,1.28,0,0,0,1-2.35A25.52,25.52,0,0,0,12.76,25.55c0,3.26,1.32,7.51,3.92,12.63A111.61,111.61,0,0,0,25.11,51.75Z"/><path class="cls-1" d="M38.27,14a1.28,1.28,0,0,0,0-2.55,12.75,12.75,0,1,0,9,3.73A1.28,1.28,0,1,0,45.48,17a10.2,10.2,0,1,1-7.21-3Z"/><path class="cls-1" d="M76.05,69.61l-7.84-14a4,4,0,0,0-3.47-2H55.65a1.28,1.28,0,1,0,0,2.55h9.09a1.41,1.41,0,0,1,1.24.7l7.85,14a1.16,1.16,0,0,1,0,1.18,1.4,1.4,0,0,1-1.23.67H4A1.4,1.4,0,0,1,2.72,72a1.16,1.16,0,0,1,0-1.18l7.84-14a1.43,1.43,0,0,1,1.25-.7h9.09a1.28,1.28,0,0,0,0-2.55H11.8a4,4,0,0,0-3.48,2l-7.84,14a3.72,3.72,0,0,0,0,3.72A3.93,3.93,0,0,0,4,75.26H72.58A3.91,3.91,0,0,0,76,73.33,3.69,3.69,0,0,0,76.05,69.61Z"/><path class="cls-1" d="M62.5,60H57.4a1.28,1.28,0,0,0-.71.21l-3.82,2.55a1.27,1.27,0,1,0,1.41,2.12l3.5-2.33H62.5a1.28,1.28,0,1,0,0-2.55Z"/><path class="cls-1" d="M54.85,68.89a1.27,1.27,0,0,0,1.27,1.27H66.33a1.28,1.28,0,0,0,0-2.55H56.12A1.27,1.27,0,0,0,54.85,68.89Z"/><path class="cls-1" d="M23,65.06a1.28,1.28,0,0,0,1.22-.91,1.26,1.26,0,0,0-.51-1.43l-3.83-2.55a1.26,1.26,0,0,0-.71-.21H14a1.28,1.28,0,0,0,0,2.55h4.72l3.51,2.33A1.24,1.24,0,0,0,23,65.06Z"/><path class="cls-1" d="M10.2,67.61a1.28,1.28,0,0,0,0,2.55H20.41a1.28,1.28,0,0,0,0-2.55Z"/></g></g></svg>