<svg xmlns="http://www.w3.org/2000/svg" viewBox="0 0 85.84 85.84"><defs><style>.cls-1{fill:none;stroke-width:3.36px;}.cls-1,.cls-2{stroke:#fff;stroke-miterlimit:10;}.cls-2{fill:#fff;stroke-width:0.48px;}</style></defs><g id="Layer_2" data-name="Layer 2"><g id="Capa_1" data-name="Capa 1"><circle class="cls-1" cx="42.92" cy="42.92" r="41.24"/><path class="cls-2" d="M54,63.91l-.75,3c-2.24.89-4,1.56-5.37,2a14.33,14.33,0,0,1-4.66.69,9.29,9.29,0,0,1-6.33-2,6.43,6.43,0,0,1-2.26-5.05,16.94,16.94,0,0,1,.17-2.43,28.34,28.34,0,0,1,.54-2.81l2.81-9.92q.38-1.43.63-2.7a12,12,0,0,0,.25-2.33,3.62,3.62,0,0,0-.78-2.65,4.41,4.41,0,0,0-3-.75,8,8,0,0,0-2.23.34c-.76.23-1.41.45-2,.65L31.85,37q2.74-1.12,5.27-1.92a15.89,15.89,0,0,1,4.77-.8,9.11,9.11,0,0,1,6.24,1.95,6.51,6.51,0,0,1,2.19,5.09c0,.43,0,1.19-.15,2.27a15.28,15.28,0,0,1-.56,3l-2.8,9.89c-.22.79-.43,1.7-.61,2.72a14.54,14.54,0,0,0-.27,2.31,3.34,3.34,0,0,0,.88,2.69,5,5,0,0,0,3,.71,8.7,8.7,0,0,0,2.31-.36A12.5,12.5,0,0,0,54,63.91Zm.71-41.5a5.77,5.77,0,0,1-2,4.4,6.62,6.62,0,0,1-4.7,1.82,6.71,6.71,0,0,1-4.73-1.82,5.78,5.78,0,0,1-2-4.4,5.85,5.85,0,0,1,2-4.42,6.72,6.72,0,0,1,4.73-1.83A6.63,6.63,0,0,1,52.79,18,5.84,5.84,0,0,1,54.75,22.41Z"/></g></g></svg>