<svg xmlns="http://www.w3.org/2000/svg" viewBox="0 0 481.38 478.61"><defs><style>.cls-1{fill:#fff;}.cls-2{fill:#d81f2d;}.cls-3{fill:#49c1c8;}</style></defs><title>isotipo_color_m</title><g id="Layer_2" data-name="Layer 2"><g id="Layer_1-2" data-name="Layer 1"><path class="cls-1" d="M152.17,324.51V293H66.78v-29.8L156.93,160H190V257.9h27.54V293H190v31.55ZM116.86,257.9h35.31V217.33Z"/><path class="cls-1" d="M253.33,242.12c0-43.57,18-85.39,75.13-85.39,57.6,0,75.38,41.82,75.38,85.39s-18.28,85.65-75.38,85.65C271.11,327.77,253.33,286,253.33,242.12Zm110.94,0c0-24.29-7-48.83-35.81-48.83-28.55,0-35.81,24.54-35.81,48.83,0,24.54,7.26,48.58,35.81,48.58S364.27,266.66,364.27,242.12Z"/><polygon class="cls-2" points="27.96 207.91 0 207.91 0 0 195.9 0 195.9 27.96 27.96 27.96 27.96 207.91"/><polygon class="cls-3" points="481.38 478.61 271.1 478.61 271.1 450.65 453.42 450.65 453.42 265.32 481.38 265.32 481.38 478.61"/></g></g></svg>