<svg xmlns="http://www.w3.org/2000/svg" viewBox="0 0 140.51 122.68"><defs><style>.cls-1{fill:#fff;}</style></defs><title>Asset 4</title><g id="Layer_2" data-name="Layer 2"><g id="Layer_1-2" data-name="Layer 1"><path class="cls-1" d="M99.83,66.81H80.74a9.49,9.49,0,0,0-9.48,9.48V90.93a9.49,9.49,0,0,0,9.48,9.47H99.83a9.48,9.48,0,0,0,9.47-9.47V76.29A9.49,9.49,0,0,0,99.83,66.81Zm2.58,24.12a2.59,2.59,0,0,1-2.58,2.58H80.74a2.59,2.59,0,0,1-2.59-2.58V76.29a2.6,2.6,0,0,1,2.59-2.59H99.83a2.59,2.59,0,0,1,2.58,2.59Z"/><path class="cls-1" d="M140.51,40.2a3.17,3.17,0,0,0-.46-1.7L119.15,1.75a3.46,3.46,0,0,0-3-1.75H24.32a3.41,3.41,0,0,0-3,1.75L.46,38.5A3.46,3.46,0,0,0,0,40.2,20.16,20.16,0,0,0,12.06,58.63v60.61a3.45,3.45,0,0,0,3.44,3.44H125a3.45,3.45,0,0,0,3.44-3.44V59.06a2.06,2.06,0,0,0,0-.37A20.22,20.22,0,0,0,140.51,40.2ZM26.33,6.92h87.82l16.34,28.74H10ZM100,42.52a13.24,13.24,0,0,1-26.07,0Zm-33.39,0a13.26,13.26,0,0,1-26.1,0Zm-59.49,0h26.1a13.26,13.26,0,0,1-26.1,0Zm50.76,73.27H38.07V78.61A4.91,4.91,0,0,1,43,73.7H53a4.91,4.91,0,0,1,4.91,4.91v37.18Zm63.65,0H64.77V78.61A11.82,11.82,0,0,0,53,66.81H43a11.82,11.82,0,0,0-11.8,11.8v37.21H19V60.32c.4,0,.8,0,1.21,0a20.11,20.11,0,0,0,16.7-8.9,20.14,20.14,0,0,0,33.42,0,20.09,20.09,0,0,0,33.37,0,20.11,20.11,0,0,0,16.71,8.9c.4,0,.77,0,1.17,0v55.47Zm-1.17-62.33a13.24,13.24,0,0,1-13-10.91h26.1A13.32,13.32,0,0,1,120.36,53.46Z"/></g></g></svg>