<svg xmlns="http://www.w3.org/2000/svg" viewBox="0 0 764.23 217.18"><defs><style>.cls-1{fill:#fff;}.cls-2{fill:#d81f2d;}.cls-3{fill:#49c1c8;}</style></defs><title>Asset 2</title><g id="Layer_2" data-name="Layer 2"><g id="Layer_1-2" data-name="Layer 1"><path class="cls-1" d="M293.31,160.71l-2-4.37h-8.43l-2,4.37h-1.54l7.74-16.32,7.79,16.32Zm-9.95-5.61h7.47l-3.61-8H287Z"/><path class="cls-1" d="M321.92,160.71H320.4V144.62h5.77a6.87,6.87,0,0,1,4.06,1.13,4,4,0,0,1,1.59,3.61,4.33,4.33,0,0,1-1.61,3.72,6.56,6.56,0,0,1-4,1.19h-4.25Zm0-7.68h4.13c2.83,0,4.3-1.26,4.3-3.67,0-2.21-1.43-3.5-4.3-3.5h-4.13Z"/><path class="cls-1" d="M369.69,160.71l-2-4.37h-8.44l-2,4.37h-1.54l7.75-16.32,7.79,16.32Zm-9.95-5.61h7.46l-3.6-8h-.26Z"/><path class="cls-1" d="M398.29,154.27v6.44h-1.52V144.62h5.84a6.66,6.66,0,0,1,3.93,1.15,4.05,4.05,0,0,1,1.63,3.61c0,2.5-1.24,4-3.81,4.76l4.43,6.57h-1.86l-4.14-6.44Zm0-1.24h4.21c2.75,0,4.2-1.26,4.2-3.65s-1.54-3.52-4.2-3.52h-4.21Z"/><path class="cls-1" d="M439,160.71V146h-6v-1.34H446.5V146h-6v14.75Z"/><path class="cls-1" d="M484,160.71l-2-4.37h-8.43l-2,4.37h-1.54l7.74-16.32,7.79,16.32Zm-10-5.61h7.47l-3.61-8h-.25Z"/><path class="cls-1" d="M520.71,160.71h-.85l-6.8-13-1.2,13h-1.49l2-16.09h.37l7.56,14.32,7.54-14.32h.41l1.93,16.09h-1.49l-1.25-13Z"/><path class="cls-1" d="M567.77,144.62v1.27h-9.42V152h9.42v1.27h-9.42v6.23h9.42v1.26H556.83V144.62Z"/><path class="cls-1" d="M595.94,160.71h-1.52V144.62L606.05,157V144.62h1.51l0,16.09-11.6-12.5Z"/><path class="cls-1" d="M639,160.71V146h-6v-1.34h13.54V146h-6v14.75Z"/><path class="cls-1" d="M679,144.32c4.14,0,8.23,4.16,8.23,8.35S683.18,161,679,161s-8.22-4.12-8.22-8.34S674.91,144.32,679,144.32Zm0,15.4c3.4,0,6.71-3.68,6.71-7.05s-3.31-7-6.71-7.06-6.71,3.7-6.71,7.06S675.67,159.72,679,159.72Z"/><path class="cls-1" d="M718.66,159.67a6.44,6.44,0,0,0,3.26-.75,2.72,2.72,0,0,0,1.35-2.58c0-2-1.4-2.66-5-3.17a11.13,11.13,0,0,1-4-1.22,3,3,0,0,1-1.45-2.89c0-2.23,2-4.69,5.68-4.69a8.74,8.74,0,0,1,3,.44,17.08,17.08,0,0,1,3.1,1.54l-.73,1.08-.23-.19a7.58,7.58,0,0,0-4.85-1.58c-3.06,0-4.55,1.49-4.55,3.4,0,1.74,1.45,2.46,5,2.92,3.79.48,5.5,1.72,5.5,4.29s-2.16,4.69-5.86,4.69a11.08,11.08,0,0,1-6.55-1.91l.75-1.08A10.41,10.41,0,0,0,718.66,159.67Z"/><path class="cls-1" d="M270.9,90.73H260.37v19.08h-7.82V58.64H270.9a21.2,21.2,0,0,1,12.72,3.65c3.58,2.56,5.27,6.65,5.27,12.14s-1.76,9.72-5.34,12.42A20.16,20.16,0,0,1,270.9,90.73ZM260.37,65.87V83.56h10.17c7.45,0,10.67-3.14,10.67-9.13,0-5.19-2.92-8.56-10.67-8.56Z"/><path class="cls-1" d="M308.92,84.22c0-13.74,12.5-26.54,26.17-26.54s26.17,12.8,26.17,26.54c0,13.89-12.5,26.54-26.17,26.54S308.92,98.11,308.92,84.22Zm8,0c0,9.43,8.77,19.16,18.13,19.16s18.13-9.73,18.13-19.16-8.63-19.15-18.13-19.15S317,74.79,317,84.22Z"/><path class="cls-1" d="M405,90.73H394.67v19.08h-7.89V58.64h18.64a20.89,20.89,0,0,1,12.43,3.72c3.65,2.56,5.41,6.66,5.41,12.14,0,7.67-3.58,12.72-10,15.06l13.38,20.25H417ZM394.67,65.87V83.56h10.38c7.39,0,10.53-3.21,10.53-9.06s-3.51-8.63-10.53-8.63Z"/><path class="cls-1" d="M469.24,109.81h-8V66.09H443.73V58.64h43.06v7.45H469.24Z"/><path class="cls-1" d="M539.65,96.87H516.91l-5.85,12.94h-8.48l24.78-52.42h1.83l24.86,52.42h-8.56Zm-19.74-7.24h16.74l-8.34-18.49Z"/><path class="cls-1" d="M576.05,58.64h7.75v43.93h24.27v7.24h-32Z"/><path class="cls-1" d="M693.9,109.81h-7.6V98.55H661.52V92.63l24.49-34h7.89v33h8.7v6.87h-8.7ZM670.73,91.68H686.3V70.11Z"/><path class="cls-1" d="M723.73,84.22c0-14.91,6.73-26.54,20.25-26.54s20.25,11.63,20.25,26.54-6.72,26.54-20.25,26.54S723.73,99.14,723.73,84.22ZM744,65.07c-4.31,0-7.31,1.68-9.21,5.26-2,3.73-3.07,8.41-3.07,13.89s1,10.16,3.07,13.89c1.9,3.58,4.9,5.27,9.21,5.27s7.38-1.69,9.21-5.2c2-3.72,3.07-8.4,3.07-14s-1-10.16-3.07-13.89C751.29,66.75,748.29,65.07,744,65.07Z"/><path class="cls-1" d="M68.85,147.45V133.06H29.9V119.47L71,72.41H86.1v44.66H98.66v16H86.1v14.39Zm-16.1-30.38h16.1V98.57Z"/><path class="cls-1" d="M115,109.87c0-19.87,8.22-38.94,34.26-38.94,26.27,0,34.38,19.07,34.38,38.94s-8.34,39.06-34.38,39.06S115,129.86,115,109.87Zm50.59,0c0-11.08-3.19-22.27-16.33-22.27s-16.33,11.19-16.33,22.27S136.23,132,149.25,132,165.58,121.07,165.58,109.87Z"/><polygon class="cls-2" points="11.65 94.27 0 94.27 0 0 88.79 0 88.79 11.65 11.65 11.65 11.65 94.27"/><polygon class="cls-3" points="218.44 217.18 123.09 217.18 123.09 205.53 206.79 205.53 206.79 120.45 218.44 120.45 218.44 217.18"/></g></g></svg>