<svg xmlns="http://www.w3.org/2000/svg" viewBox="0 0 105.69 123.27"><defs><style>.cls-1{fill:#d9042b;}.cls-2{fill:#04d7d7;}</style></defs><g id="Layer_2" data-name="Layer 2"><g id="Capa_1" data-name="Capa 1"><path d="M2.41,120.64H1v2.51H0v-6.73H2.41a2.75,2.75,0,0,1,1.67.48,1.79,1.79,0,0,1,.7,1.59,2,2,0,0,1-.7,1.64A2.72,2.72,0,0,1,2.41,120.64ZM1,117.37v2.33H2.36c1,0,1.41-.42,1.41-1.21s-.39-1.12-1.41-1.12Z"/><path d="M12.21,119.78a3.61,3.61,0,0,1,3.44-3.49,3.49,3.49,0,0,1,0,7A3.6,3.6,0,0,1,12.21,119.78Zm1.06,0a2.62,2.62,0,0,0,2.38,2.52,2.52,2.52,0,0,0,0-5A2.62,2.62,0,0,0,13.27,119.78Z"/><path d="M29.64,120.64H28.29v2.51h-1v-6.73H29.7a2.71,2.71,0,0,1,1.63.49,1.78,1.78,0,0,1,.72,1.59,1.92,1.92,0,0,1-1.32,2l1.76,2.67H31.22Zm-1.35-3.27v2.33h1.36c1,0,1.39-.43,1.39-1.2s-.46-1.13-1.39-1.13Z"/><path d="M42.89,123.15h-1V117.4H39.54v-1H45.2v1H42.89Z"/><path d="M57,121.45H54l-.77,1.7H52.08l3.26-6.9h.24l3.27,6.9H57.72Zm-2.59-1h2.2l-1.1-2.43Z"/><path d="M66.54,116.42h1v5.77h3.19v1H66.54Z"/><path d="M91.64,123.15h-1v-1.48H87.38v-.78l3.22-4.47h1v4.34h1.14v.91H91.64Zm-3-2.39h2v-2.83Z"/><path d="M100.36,119.78c0-2,.88-3.49,2.66-3.49s2.67,1.53,2.67,3.49-.89,3.49-2.67,3.49S100.36,121.74,100.36,119.78Zm2.66-2.52a1.26,1.26,0,0,0-1.21.69,4.39,4.39,0,0,0,0,3.66,1.41,1.41,0,0,0,2.42,0,4.31,4.31,0,0,0,0-3.67A1.25,1.25,0,0,0,103,117.26Z"/><path d="M33.48,70.44V63.59H14.94V57.12L34.51,34.71h7.18V56h6v7.62h-6v6.85ZM25.81,56h7.67V47.16Z"/><path d="M55.45,52.55C55.45,43.08,59.37,34,71.77,34s16.37,9.08,16.37,18.55-4,18.6-16.37,18.6S55.45,62.06,55.45,52.55Zm24.09,0c0-5.28-1.52-10.61-7.77-10.61S64,47.27,64,52.55,65.57,63.1,71.77,63.1,79.54,57.88,79.54,52.55Z"/><polygon class="cls-1" points="6.47 45.12 0.47 45.12 0.47 0 42.98 0 42.98 6 6.47 6 6.47 45.12"/><polygon class="cls-2" points="104.94 103.87 59.31 103.87 59.31 97.87 98.94 97.87 98.94 57.58 104.94 57.58 104.94 103.87"/></g></g></svg>