<svg xmlns="http://www.w3.org/2000/svg" viewBox="0 0 576.72 571.14"><defs><style>.cls-1,.cls-2{fill:#fff;}.cls-2{stroke:#fff;stroke-miterlimit:10;}</style></defs><title>logo_white_footer</title><g id="Layer_2" data-name="Layer 2"><g id="Layer_1-2" data-name="Layer 1"><path class="cls-1" d="M10.83,559.32H4.62v11.26H0v-30.2H10.83a12.58,12.58,0,0,1,7.51,2.15c2.11,1.52,3.1,3.93,3.1,7.17s-1,5.74-3.14,7.33A11.91,11.91,0,0,1,10.83,559.32ZM4.62,544.65v10.44h6c4.4,0,6.29-1.86,6.29-5.39,0-3.07-1.72-5.05-6.29-5.05Z"/><path class="cls-1" d="M67.61,555.48c0-8.11,7.38-15.66,15.44-15.66s15.45,7.55,15.45,15.66-7.38,15.66-15.45,15.66S67.61,563.68,67.61,555.48Zm4.74,0c0,5.57,5.18,11.3,10.7,11.3s10.71-5.73,10.71-11.3-5.1-11.31-10.71-11.31S72.35,549.91,72.35,555.48Z"/><path class="cls-1" d="M158.64,559.32h-6.08v11.26H147.9v-30.2h11a12.29,12.29,0,0,1,7.34,2.2c2.16,1.51,3.19,3.92,3.19,7.16,0,4.53-2.11,7.51-5.91,8.89l7.9,12h-5.7Zm-6.08-14.67v10.44h6.13c4.36,0,6.21-1.9,6.21-5.35s-2.07-5.09-6.21-5.09Z"/><path class="cls-1" d="M230.91,570.58h-4.7v-25.8H215.85v-4.4h25.42v4.4H230.91Z"/><path class="cls-1" d="M306.8,562.94H293.39l-3.46,7.64h-5l14.63-30.94h1.07l14.68,30.94h-5.05Zm-11.64-4.27H305l-4.92-10.91Z"/><path class="cls-1" d="M362.63,540.38h4.57v25.93h14.33v4.27h-18.9Z"/><path class="cls-1" d="M500.87,570.58h-4.49v-6.64H481.76v-3.5l14.45-20.06h4.66v19.5H506v4.06h-5.14Zm-13.68-10.7h9.19V547.15Z"/><path class="cls-1" d="M552.82,555.48c0-8.8,4-15.66,11.95-15.66s12,6.86,12,15.66-4,15.66-12,15.66S552.82,564.28,552.82,555.48Zm11.95-11.31a5.62,5.62,0,0,0-5.44,3.11,19.48,19.48,0,0,0,0,16.4,6.34,6.34,0,0,0,10.88,0,19.57,19.57,0,0,0,0-16.44A5.64,5.64,0,0,0,564.77,544.17Z"/><path class="cls-1" d="M201,325.28V294.51H117.73V265.45l87.9-100.61h32.24v95.48h26.86v34.19H237.87v30.77Zm-34.43-65H201V220.76Z"/><path class="cls-1" d="M299.65,244.94c0-42.49,17.58-83.27,73.26-83.27,56.17,0,73.5,40.78,73.5,83.27s-17.82,83.51-73.5,83.51C317,328.45,299.65,287.67,299.65,244.94Zm108.18,0c0-23.69-6.84-47.62-34.92-47.62-27.84,0-34.92,23.93-34.92,47.62,0,23.93,7.08,47.37,34.92,47.37S407.83,268.87,407.83,244.94Z"/><polygon class="cls-2" points="73.22 200.38 51.69 200.38 51.69 0.5 239.86 0.5 239.86 22.02 73.22 22.02 73.22 200.38"/><polygon class="cls-2" points="515.39 461.49 313.19 461.49 313.19 439.97 493.86 439.97 493.86 256.36 515.39 256.36 515.39 461.49"/></g></g></svg>