<svg xmlns="http://www.w3.org/2000/svg" viewBox="0 0 483.95 489.63"><defs><style>.cls-1{fill:none;}.cls-2{isolation:isolate;}.cls-3{fill:#fff;}.cls-4{fill:#d9042b;}.cls-5{fill:#04d7d7;}</style></defs><title>Asset 4</title><g id="Layer_2" data-name="Layer 2"><g id="Layer_1-2" data-name="Layer 1"><rect class="cls-1" y="445.2" width="483.95" height="44.43"/><g class="cls-2"><path class="cls-3" d="M8.16,474.88c-.39-.36-.79-.75-1.11-1.11v9.16H3.36V457.37H7v2a10.06,10.06,0,0,1,1.33-1.22A7,7,0,0,1,12.63,457c4.94,0,8.31,4.44,8.31,9.66s-3.37,9.67-8.31,9.67A6.75,6.75,0,0,1,8.16,474.88Zm-1.11-8.2c0,3.33,2.18,6.12,5.12,6.12s5.12-2.75,5.12-6.12c0-3.61-2.19-6.15-5.12-6.15S7.05,463.39,7.05,466.68Z"/><path class="cls-3" d="M59.36,466.54A9.78,9.78,0,0,1,68.77,457a9.51,9.51,0,0,1,0,19A9.75,9.75,0,0,1,59.36,466.54Zm3.72,0a5.72,5.72,0,1,0,5.69-6.05A5.91,5.91,0,0,0,63.08,466.54Z"/><path class="cls-3" d="M122,475.63h-3.54V457.37H122v2.44a9,9,0,0,1,1.26-1.36c1.14-1,2.75-1.43,5.4-1.43v3.68c-4.22,0-6.66,2.69-6.66,5.55Z"/><path class="cls-3" d="M168.45,467.9v-7.41h-2.12V457.2h2.12v-4.05H172v4.05h6.37v3.29H172v7.19c0,3.76,1,4.84,3.15,4.84a5.92,5.92,0,0,0,3.07-1l.94,3.26a8.66,8.66,0,0,1-4.27,1.29C170.41,476,168.45,473.09,168.45,467.9Z"/><path class="cls-3" d="M229.45,473.84a8,8,0,0,1-5.69,2.19c-3.58,0-6.48-2.33-6.48-6.16,0-4,2.94-6.05,7.37-6.05a15,15,0,0,1,4.77.89c-.15-3.15-1.08-3.93-4.23-4.29a.64.64,0,0,0-.21,0h-.47a10.31,10.31,0,0,0-1.65.15,30.74,30.74,0,0,0-3.58.68l-.82-3.3a23.46,23.46,0,0,1,6.3-.93l.68,0c6,.28,7.66,2.54,7.66,8.66v10h-3.65Zm-4.29-6.94c-3,0-4.19,1.14-4.19,3s1.18,3,3.58,3a5.46,5.46,0,0,0,2.79-.82,7.92,7.92,0,0,0,2.08-1.9V467.9A10.15,10.15,0,0,0,225.16,466.9Z"/><path class="cls-3" d="M273.88,449.21h3.55v26.42h-3.55Z"/><path class="cls-3" d="M377.17,475.63h-3.72v-5.51H361.31v-2.9l12-16.65h3.87v16.18h4.26v3.37h-4.26Zm-11.35-8.88h7.63V456.19Z"/><path class="cls-3" d="M419.6,463.1c0-7.3,3.29-13,9.91-13s9.92,5.69,9.92,13-3.29,13-9.92,13S419.6,470.4,419.6,463.1Zm9.91-9.38A4.67,4.67,0,0,0,425,456.3a16.16,16.16,0,0,0,0,13.6,5.25,5.25,0,0,0,9,0,14,14,0,0,0,1.51-6.84,13.87,13.87,0,0,0-1.51-6.8A4.66,4.66,0,0,0,429.51,453.72Z"/></g><g class="cls-2"><path class="cls-3" d="M170.34,272.07V246.54h-69.1V222.43l73-83.49h26.75v79.23h22.29v28.37H200.94v25.53Zm-28.57-53.9h28.57V185.35Z"/><path class="cls-3" d="M252.2,205.41c0-35.26,14.59-69.1,60.8-69.1,46.6,0,61,33.84,61,69.1s-14.79,69.3-61,69.3C266.59,274.71,252.2,240.87,252.2,205.41Zm89.77,0c0-19.66-5.67-39.52-29-39.52-23.1,0-29,19.86-29,39.52,0,19.86,5.88,39.31,29,39.31S342,225.27,342,205.41Z"/></g><polygon class="cls-4" points="66.87 168.43 43.87 168.43 43.87 0 202.58 0 202.58 23 66.87 23 66.87 168.43"/><polygon class="cls-5" points="434.29 388.18 263.43 388.18 263.43 364.18 410.29 364.18 410.29 214.89 434.29 214.89 434.29 388.18"/></g></g></svg>