<svg id="Capa_1" data-name="Capa 1" xmlns="http://www.w3.org/2000/svg" viewBox="0 0 1027.98 292.13"><defs><style>.cls-1{fill:#fff;}.cls-2{fill:#d9042b;}.cls-3{fill:#04d7d7;}</style></defs><path class="cls-1" d="M428.25,391.28v-24h18.94v5.11h-13v4.33h8.62v4.94h-8.62v4.53h13.18v5.11Z" transform="translate(-86.01 -172.8)"/><path class="cls-1" d="M473.38,387.61l3.29-4.29a17.28,17.28,0,0,0,4.06,2.54,10,10,0,0,0,3.94.79,6.83,6.83,0,0,0,3.18-.62,1.9,1.9,0,0,0,1.15-1.71,1.79,1.79,0,0,0-.78-1.55,6.44,6.44,0,0,0-2.55-.86l-5.29-.92a7.83,7.83,0,0,1-4.5-2.23,6.21,6.21,0,0,1-1.57-4.36,6.53,6.53,0,0,1,2.62-5.48,11.63,11.63,0,0,1,7.23-2,16.67,16.67,0,0,1,5.4.93,15.11,15.11,0,0,1,4.69,2.51l-3.13,4.36a14.19,14.19,0,0,0-3.69-2.17,10.43,10.43,0,0,0-3.69-.68,6.1,6.1,0,0,0-2.83.56,1.72,1.72,0,0,0-1,1.53,1.62,1.62,0,0,0,.67,1.39,5.07,5.07,0,0,0,2.18.74l5,.82a9.51,9.51,0,0,1,5.27,2.3,6,6,0,0,1,1.8,4.53,6.83,6.83,0,0,1-2.83,5.77,12.54,12.54,0,0,1-7.7,2.12,16.36,16.36,0,0,1-5.75-1.06A17,17,0,0,1,473.38,387.61Z" transform="translate(-86.01 -172.8)"/><path class="cls-1" d="M522.05,391.28v-24h12.66a8.94,8.94,0,0,1,3.26.58,7.51,7.51,0,0,1,4.29,4.1,7.78,7.78,0,0,1,.62,3.11,7.49,7.49,0,0,1-.62,3,7.19,7.19,0,0,1-1.71,2.42,8.22,8.22,0,0,1-2.59,1.59,8.86,8.86,0,0,1-3.25.59H528v8.61Zm12-19H528v5.49H534a2.93,2.93,0,0,0,2.07-.75,2.56,2.56,0,0,0,.81-2,2.67,2.67,0,0,0-.81-2A2.9,2.9,0,0,0,534,372.3Z" transform="translate(-86.01 -172.8)"/><path class="cls-1" d="M564.47,391.28l9.85-24h6.76l9.71,24h-6.38l-2.2-5.8h-9.37l-2.23,5.8Zm10.16-10.5h5.83l-2.88-7.69Z" transform="translate(-86.01 -172.8)"/><path class="cls-1" d="M628,386.17a7,7,0,0,0,3.25-.76,8.25,8.25,0,0,0,2.69-2.23l3.88,3.81a12.06,12.06,0,0,1-4.41,3.37,13.53,13.53,0,0,1-10.71.3,12.76,12.76,0,0,1-4.1-2.6,12,12,0,0,1-2.71-3.92,11.86,11.86,0,0,1-1-4.87,12,12,0,0,1,1-4.89,11.86,11.86,0,0,1,2.73-3.93,12.83,12.83,0,0,1,4.1-2.61,13.39,13.39,0,0,1,5.08-1,13,13,0,0,1,3,.34,15.48,15.48,0,0,1,2.81.95,11.94,11.94,0,0,1,2.47,1.47,10.92,10.92,0,0,1,2,1.94l-4,3.92a8.88,8.88,0,0,0-2.83-2.39,7.24,7.24,0,0,0-3.38-.81,6.73,6.73,0,0,0-4.86,2,6.76,6.76,0,0,0-1.44,2.22,7.22,7.22,0,0,0-.53,2.76,7,7,0,0,0,.53,2.73,6.68,6.68,0,0,0,1.48,2.18,6.85,6.85,0,0,0,2.23,1.46A7.3,7.3,0,0,0,628,386.17Z" transform="translate(-86.01 -172.8)"/><path class="cls-1" d="M664.89,391.28v-24h5.9v24Z" transform="translate(-86.01 -172.8)"/><path class="cls-1" d="M724.16,379.27a11.91,11.91,0,0,1-1,4.86,12.26,12.26,0,0,1-2.71,3.94,12.51,12.51,0,0,1-4.08,2.63,13.74,13.74,0,0,1-10.09,0,12.67,12.67,0,0,1-4.09-2.63,12.42,12.42,0,0,1-2.71-3.94,12.42,12.42,0,0,1,0-9.72,12.42,12.42,0,0,1,2.71-3.94,12.67,12.67,0,0,1,4.09-2.63,13.74,13.74,0,0,1,10.09,0,12.51,12.51,0,0,1,4.08,2.63,12.26,12.26,0,0,1,2.71,3.94A11.91,11.91,0,0,1,724.16,379.27Zm-6.08,0a7.4,7.4,0,0,0-.51-2.76,6.58,6.58,0,0,0-1.43-2.22,6.9,6.9,0,0,0-7.5-1.46,7,7,0,0,0-2.14,1.46,6.55,6.55,0,0,0-1.42,2.22,7.58,7.58,0,0,0,0,5.52,6.55,6.55,0,0,0,1.42,2.22,7,7,0,0,0,2.14,1.46,6.78,6.78,0,0,0,7.5-1.46,6.58,6.58,0,0,0,1.43-2.22A7.44,7.44,0,0,0,718.08,379.27Z" transform="translate(-86.01 -172.8)"/><path class="cls-1" d="M749.87,387.61l3.29-4.29a17,17,0,0,0,4.05,2.54,10.06,10.06,0,0,0,3.95.79,6.78,6.78,0,0,0,3.17-.62,1.88,1.88,0,0,0,1.15-1.71,1.8,1.8,0,0,0-.77-1.55,6.56,6.56,0,0,0-2.56-.86l-5.28-.92a7.77,7.77,0,0,1-4.5-2.23,6.22,6.22,0,0,1-1.58-4.36,6.54,6.54,0,0,1,2.63-5.48,11.6,11.6,0,0,1,7.22-2,16.68,16.68,0,0,1,5.41.93,14.94,14.94,0,0,1,4.68,2.51l-3.12,4.36a14.36,14.36,0,0,0-3.69-2.17,10.43,10.43,0,0,0-3.69-.68,6.08,6.08,0,0,0-2.83.56,1.71,1.71,0,0,0-1,1.53,1.64,1.64,0,0,0,.67,1.39,5.12,5.12,0,0,0,2.18.74l5,.82a9.48,9.48,0,0,1,5.26,2.3,6,6,0,0,1,1.81,4.53,6.84,6.84,0,0,1-2.84,5.77,12.5,12.5,0,0,1-7.7,2.12,16.41,16.41,0,0,1-5.75-1.06A16.81,16.81,0,0,1,749.87,387.61Z" transform="translate(-86.01 -172.8)"/><path class="cls-1" d="M829.79,391.28v-24h12.67a8.94,8.94,0,0,1,3.26.58,7.51,7.51,0,0,1,4.29,4.1,7.78,7.78,0,0,1,.62,3.11,7.49,7.49,0,0,1-.62,3,7.08,7.08,0,0,1-1.72,2.42,8,8,0,0,1-2.59,1.59,8.76,8.76,0,0,1-3.24.59H835.7v8.61Zm12-19H835.7v5.49h6.07a2.94,2.94,0,0,0,2.08-.75,2.56,2.56,0,0,0,.81-2,2.67,2.67,0,0,0-.81-2A2.9,2.9,0,0,0,841.77,372.3Z" transform="translate(-86.01 -172.8)"/><path class="cls-1" d="M872.22,391.28l9.85-24h6.76l9.71,24h-6.38l-2.2-5.8h-9.37l-2.23,5.8Zm10.16-10.5h5.83l-2.88-7.69Z" transform="translate(-86.01 -172.8)"/><path class="cls-1" d="M924.86,391.28v-24h12.29a10.12,10.12,0,0,1,3.41.56,8,8,0,0,1,2.68,1.58,7.33,7.33,0,0,1,2.39,5.51,6.91,6.91,0,0,1-1.24,4,7.78,7.78,0,0,1-3.26,2.71l5.25,9.61h-6.59l-4.53-8.75h-4.49v8.75Zm11.74-19h-5.83v5.43h5.83a3.19,3.19,0,0,0,2.21-.76,2.67,2.67,0,0,0,0-3.91A3.14,3.14,0,0,0,936.6,372.3Z" transform="translate(-86.01 -172.8)"/><path class="cls-1" d="M971.33,391.28l9.85-24h6.76l9.72,24h-6.39l-2.19-5.8h-9.37l-2.23,5.8Zm10.16-10.5h5.84l-2.89-7.69Z" transform="translate(-86.01 -172.8)"/><path class="cls-1" d="M1053.87,372.47v-5.21h21.63v5.21h-7.86v18.81h-5.91V372.47Z" transform="translate(-86.01 -172.8)"/><path class="cls-1" d="M1102.67,391.28v-24h5.91v24Z" transform="translate(-86.01 -172.8)"/><path class="cls-1" d="M450.41,294.25H436.24v25.67H425.72V251.08h24.69c6.78,0,12.39,1.57,17.11,4.91s7.08,8.95,7.08,16.33-2.36,13.08-7.18,16.72C462.8,292.58,457.09,294.25,450.41,294.25Zm-14.17-33.44v23.8h13.67c10,0,14.36-4.23,14.36-12.29,0-7-3.93-11.51-14.36-11.51Z" transform="translate(-86.01 -172.8)"/><path class="cls-1" d="M501.54,285.5c0-18.49,16.82-35.7,35.21-35.7S572,267,572,285.5c0,18.68-16.81,35.7-35.2,35.7S501.54,304.18,501.54,285.5Zm10.82,0c0,12.68,11.8,25.76,24.39,25.76,12.78,0,24.39-13.08,24.39-25.76s-11.61-25.77-24.39-25.77C524.16,259.73,512.36,272.81,512.36,285.5Z" transform="translate(-86.01 -172.8)"/><path class="cls-1" d="M630.76,294.25H616.89v25.67H606.27V251.08h25.08a28.08,28.08,0,0,1,16.72,5c4.91,3.44,7.27,9,7.27,16.33,0,10.32-4.81,17.11-13.47,20.26l18,27.24h-13Zm-13.87-33.44v23.8h14c9.93,0,14.16-4.32,14.16-12.19,0-7.67-4.72-11.61-14.16-11.61Z" transform="translate(-86.01 -172.8)"/><path class="cls-1" d="M717.2,319.92H706.48V261.11h-23.6v-10H740.8v10H717.2Z" transform="translate(-86.01 -172.8)"/><path class="cls-1" d="M811.9,302.51H781.31l-7.86,17.41H762l33.34-70.52h2.46l33.43,70.52H819.76Zm-26.55-9.74h22.52l-11.22-24.88Z" transform="translate(-86.01 -172.8)"/><path class="cls-1" d="M860.87,251.08h10.42v59.1h32.65v9.74H860.87Z" transform="translate(-86.01 -172.8)"/><path class="cls-1" d="M1019.39,319.92h-10.23V304.77H975.83v-8l32.94-45.73h10.62v44.45h11.7v9.24h-11.7Zm-31.17-24.39h20.94v-29Z" transform="translate(-86.01 -172.8)"/><path class="cls-1" d="M1059.51,285.5c0-20.06,9-35.7,27.24-35.7S1114,265.44,1114,285.5s-9,35.7-27.24,35.7S1059.51,305.56,1059.51,285.5Zm27.24-25.77c-5.8,0-9.83,2.26-12.39,7.08-2.75,5-4.13,11.31-4.13,18.69s1.38,13.67,4.13,18.68c2.56,4.82,6.59,7.08,12.39,7.08s9.93-2.26,12.39-7c2.76-5,4.13-11.31,4.13-18.78s-1.37-13.67-4.13-18.69C1096.59,262,1092.55,259.73,1086.75,259.73Z" transform="translate(-86.01 -172.8)"/><path class="cls-1" d="M178.62,371.14V351.78H126.23V333.5l55.31-63.29h20.28v60.07h16.89v21.5H201.82v19.36ZM157,330.28h21.66V305.39Z" transform="translate(-86.01 -172.8)"/><path class="cls-1" d="M240.68,320.6c0-26.73,11.06-52.39,46.09-52.39,35.33,0,46.24,25.66,46.24,52.39s-11.22,52.54-46.24,52.54C251.59,373.14,240.68,347.48,240.68,320.6Zm68.06,0c0-14.9-4.31-30-22-30s-22,15.06-22,30,4.45,29.8,22,29.8S308.74,335.65,308.74,320.6Z" transform="translate(-86.01 -172.8)"/><polygon class="cls-2" points="15.67 126.8 0 126.8 0 0 119.44 0 119.44 15.67 15.67 15.67 15.67 126.8"/><polygon class="cls-3" points="293.83 292.13 165.57 292.13 165.57 276.46 278.16 276.46 278.16 162.02 293.83 162.02 293.83 292.13"/></svg>