<svg xmlns="http://www.w3.org/2000/svg" viewBox="0 0 147.55 147.6"><defs><style>.cls-1{fill:#fff;}</style></defs><title>Asset 5</title><g id="Layer_2" data-name="Layer 2"><g id="Layer_1-2" data-name="Layer 1"><path class="cls-1" d="M67.83,100.11a2.88,2.88,0,1,0-4.08,0A2.9,2.9,0,0,0,67.83,100.11Z"/><path class="cls-1" d="M54.18,31.7A31.7,31.7,0,1,0,85.88,0,31.74,31.74,0,0,0,54.18,31.7Zm57.64,0A25.94,25.94,0,1,1,85.88,5.76,26,26,0,0,1,111.82,31.7Z"/><path class="cls-1" d="M33.19,146.74a2.89,2.89,0,0,0,4.07,0l14-13.77a8.7,8.7,0,0,0,2.06-8.94l3-2.9a8.61,8.61,0,0,1,6-2.42H100.6a25.82,25.82,0,0,0,18.1-7.35c.2-.2-1.53,1.83,26.13-31.23a11.53,11.53,0,0,0-17.54-15l-17,17.48a11.61,11.61,0,0,0-9-4.29H69.19a37.24,37.24,0,0,0-14.43-2.88c-13.88,0-26,6.41-32.5,18.42a8.61,8.61,0,0,0-7.71,2.39L.84,110.07a2.89,2.89,0,0,0,0,4.07ZM54.76,81.27a31.46,31.46,0,0,1,12.68,2.64,2.9,2.9,0,0,0,1.16.24h32.73a5.77,5.77,0,0,1,0,11.53H77.81a2.88,2.88,0,0,0,0,5.76h23.52a11.54,11.54,0,0,0,11.52-11.52,10.84,10.84,0,0,0-.1-1.51L131.62,69a5.76,5.76,0,1,1,8.8,7.44l-25.85,30.9a20,20,0,0,1-14,5.62H62.29a14.34,14.34,0,0,0-10,4l-2.45,2.37L27.26,96.8C32.54,86.9,42.44,81.27,54.76,81.27ZM18.63,100.4A2.86,2.86,0,0,1,22.2,100c.5.3-.94-1,25,24.86a2.89,2.89,0,0,1,0,4.06L35.26,140.65,7,112.11Z"/><path class="cls-1" d="M82.42,14.41v3.38A8.64,8.64,0,0,0,85.3,34.58a2.89,2.89,0,1,1,0,5.77,5.23,5.23,0,0,1-3.74-2.18,2.88,2.88,0,0,0-4.41,3.71,11.92,11.92,0,0,0,5.27,3.75V49a2.89,2.89,0,0,0,5.77,0V45.62a8.65,8.65,0,0,0-2.89-16.8,2.88,2.88,0,1,1,0-5.76,4.63,4.63,0,0,1,3.12,1.5,2.88,2.88,0,1,0,4-4.14,11,11,0,0,0-4.24-2.65V14.41a2.89,2.89,0,0,0-5.77,0Z"/></g></g></svg>