<svg xmlns="http://www.w3.org/2000/svg" viewBox="0 0 68.63 68.63"><defs><style>.cls-1{fill:#ededed;}.cls-2{fill:#55cd6c;}.cls-3{fill:#fefefe;}</style></defs><title>Asset 2</title><g id="Layer_2" data-name="Layer 2"><g id="fondos"><path class="cls-1" d="M17.51,63.9A34.46,34.46,0,0,0,34.2,68.63c18.81,0,34.43-15.86,34.43-34.55S53,0,34.2,0A34.26,34.26,0,0,0,0,34.08,34.64,34.64,0,0,0,4.73,51.47L0,68.63Z"/><path class="cls-2" d="M8.28,60.35,11,50.41l-.71-1.07A28.63,28.63,0,0,1,5.92,34.08a28.4,28.4,0,0,1,56.79,0,28.68,28.68,0,0,1-28.4,28.63,28.11,28.11,0,0,1-14.79-4.37l-1.06-.6Z"/><path class="cls-3" d="M25.09,18.22l-2.25-.12a2.73,2.73,0,0,0-1.9.71,9.86,9.86,0,0,0-3.31,5.09c-.83,3.55.47,7.81,3.55,12.07A35.86,35.86,0,0,0,40.59,50.05a9.59,9.59,0,0,0,8-.94,7,7,0,0,0,3.08-4.5L52.06,43a1.18,1.18,0,0,0-.59-1.3L44,38.22a1.12,1.12,0,0,0-1.42.35l-3,3.79a.92.92,0,0,1-1,.24A23,23,0,0,1,26.27,32a.89.89,0,0,1,.12-.95l2.84-3.19a1.49,1.49,0,0,0,.23-1.19L26,18.93a1,1,0,0,0-.94-.71"/></g></g></svg>